<?xml version="1.0" encoding="utf-8"?>
<!-- Generator: Adobe Illustrator 20.0.0, SVG Export Plug-In . SVG Version: 6.00 Build 0)  -->
<svg version="1.1" id="Layer_1" xmlns="http://www.w3.org/2000/svg" xmlns:xlink="http://www.w3.org/1999/xlink" x="0px" y="0px"
	 viewBox="0 0 615.2 435" style="enable-background:new 0 0 615.2 435;" xml:space="preserve">
<style type="text/css">
	.st0{fill:#58595B;}
	.st1{fill:#C1B6B3;}
	.st2{fill:#FFFFFF;}
	.st3{fill:#F7941D;}
</style>
<path class="st3" d="M343,420.1c-12.7-8.7-26.8-15.3-42-19.7c-13.1-3.8-26.6-5.7-40.2-5.7c-15.5,0-30.5,2.6-44.8,7.2
	c-5.2-14.5-12.7-28.3-22.5-40.8c-18.2-23.3-42.4-40-69.6-48.8c4.3-14.8,6.3-30.2,5.8-46.1c-1.1-30.2-11.1-57.9-27.5-80.5
	c12.1-9.4,22.8-20.7,31.6-33.7c16.5-24.4,25-52.5,24.9-81.3c15.5-0.5,30.9-3.4,45.6-8.7c27.7-10.1,51.1-27.8,68-51.1
	c12.5,8.6,26.6,15.3,42,19.8c13.1,3.8,26.6,5.7,40.2,5.7c15.5,0,30.6-2.6,44.8-7.2c5.1,14.3,12.5,28.1,22.4,40.8
	c18.2,23.3,42.4,40,69.6,48.8c-4.3,14.8-6.3,30.2-5.8,46c1.1,30.2,11.1,57.9,27.5,80.5c-12.1,9.4-22.8,20.7-31.6,33.7
	c-16.5,24.4-25,52.5-24.9,81.3c-15.5,0.5-30.9,3.4-45.6,8.7C383.3,379,359.8,396.8,343,420.1z"/>
</svg>
